<svg width="96" height="104" viewBox="0 0 96 104" fill="none" xmlns="http://www.w3.org/2000/svg">
<g id="book">
<g id="Group" filter="url(#filter0_d)">
<path id="Vector" fill-rule="evenodd" clip-rule="evenodd" d="M48.4664 16.9999C63.0887 16.9999 74.9425 28.8644 74.9425 43.4999C74.9425 58.1353 63.0887 69.9999 48.4664 69.9999C33.8439 69.9999 21.9901 58.1353 21.9901 43.4999C21.9901 28.8644 33.8439 16.9999 48.4664 16.9999Z" fill="#FF4361"/>
<path id="Vector_2" fill-rule="evenodd" clip-rule="evenodd" d="M48.4664 16.9999C63.0887 16.9999 74.9425 28.8644 74.9425 43.4999C74.9425 58.1353 63.0887 69.9999 48.4664 69.9999C33.8439 69.9999 21.9901 58.1353 21.9901 43.4999C21.9901 28.8644 33.8439 16.9999 48.4664 16.9999Z" fill="url(#paint0_linear)"/>
</g>
<path id="Vector_3" fill-rule="evenodd" clip-rule="evenodd" d="M42.9722 0.999878H52.9631C69.5168 0.999878 82.9362 14.431 82.9362 30.9998V40.9998C82.9362 57.5681 69.5168 70.9997 52.9631 70.9997H42.9722C26.4185 70.9997 12.999 57.5681 12.999 40.9998V30.9998C12.999 14.431 26.4185 0.999878 42.9722 0.999878Z" fill="#FF4361"/>
<path id="Vector_4" fill-rule="evenodd" clip-rule="evenodd" d="M42.9722 0.999878H52.9631C69.5168 0.999878 82.9362 14.431 82.9362 30.9998V40.9998C82.9362 57.5681 69.5168 70.9997 52.9631 70.9997H42.9722C26.4185 70.9997 12.999 57.5681 12.999 40.9998V30.9998C12.999 14.431 26.4185 0.999878 42.9722 0.999878Z" fill="url(#paint1_linear)"/>
<g id="Group_2">
<g id="Group_3">
<g id="Group_4">
<path id="Vector_5" d="M34.1188 21.0001C34.1177 21.0001 34.1165 21.0001 34.1154 21.0001C33.7371 21.0001 33.3813 21.1476 33.1126 21.4156C32.841 21.6866 32.6913 22.0474 32.6913 22.4315V43.8949C32.6913 44.682 33.3342 45.3238 34.1245 45.3259C37.4562 45.3338 43.0382 46.0282 46.889 50.058V27.596C46.889 27.3292 46.8208 27.0785 46.6922 26.8711C43.5316 21.7813 37.4581 21.0079 34.1188 21.0001Z" fill="white"/>
<path id="Vector_6" d="M63.3088 43.8949V22.4314C63.3088 22.0473 63.1592 21.6865 62.8875 21.4155C62.6188 21.1475 62.2627 21 61.8848 21C61.8836 21 61.8824 21 61.8813 21C58.5422 21.0079 52.4686 21.7813 49.3079 26.8711C49.1793 27.0785 49.1113 27.3292 49.1113 27.596V50.0579C52.9621 46.0281 58.5441 45.3337 61.8758 45.3257C62.666 45.3237 63.3088 44.6818 63.3088 43.8949Z" fill="white"/>
<path id="Vector_7" d="M66.5689 25.9499H65.531V43.8949C65.531 45.9044 63.8937 47.5431 61.8811 47.5481C59.0551 47.5548 54.3954 48.1074 51.0953 51.2308C56.8028 49.8333 62.8195 50.7418 66.2485 51.5232C66.6766 51.6207 67.1191 51.5199 67.4621 51.2465C67.8039 50.9738 68 50.5661 68 50.1286V27.381C68.0001 26.5919 67.358 25.9499 66.5689 25.9499Z" fill="white"/>
<path id="Vector_8" d="M30.469 43.8949V25.9499H29.4311C28.6422 25.9499 28 26.5919 28 27.381V50.1282C28 50.5659 28.1961 50.9734 28.5379 51.2461C28.8807 51.5194 29.3227 51.6205 29.7515 51.5228C33.1805 50.7412 39.1973 49.8329 44.9046 51.2304C41.6046 48.1071 36.9449 47.5547 34.1189 47.5479C32.1064 47.5431 30.469 45.9044 30.469 43.8949Z" fill="white"/>
</g>
</g>
</g>
</g>
<defs>
<filter id="filter0_d" x="0.990097" y="8.99988" width="94.9524" height="95" filterUnits="userSpaceOnUse" color-interpolation-filters="sRGB">
<feFlood flood-opacity="0" result="BackgroundImageFix"/>
<feColorMatrix in="SourceAlpha" type="matrix" values="0 0 0 0 0 0 0 0 0 0 0 0 0 0 0 0 0 0 127 0"/>
<feOffset dy="13"/>
<feGaussianBlur stdDeviation="10.5"/>
<feColorMatrix type="matrix" values="0 0 0 0 0.898039 0 0 0 0 0.117647 0 0 0 0 0.435294 0 0 0 0.3 0"/>
<feBlend mode="normal" in2="BackgroundImageFix" result="effect1_dropShadow"/>
<feBlend mode="normal" in="SourceGraphic" in2="effect1_dropShadow" result="shape"/>
</filter>
<linearGradient id="paint0_linear" x1="52.5978" y1="102.635" x2="107.605" y2="39.4138" gradientUnits="userSpaceOnUse">
<stop stop-color="#F80759"/>
<stop offset="1" stop-color="#BC4E9C"/>
</linearGradient>
<linearGradient id="paint1_linear" x1="53.3761" y1="113.413" x2="125.385" y2="30.6506" gradientUnits="userSpaceOnUse">
<stop stop-color="#F80759"/>
<stop offset="1" stop-color="#BC4E9C"/>
</linearGradient>
</defs>
</svg>
