<svg width="221" height="76" viewBox="0 0 221 76" fill="none" xmlns="http://www.w3.org/2000/svg">
<g id="learnearn">
<g id="logo">
<g id="letter L" filter="url(#filter0_d)">
<rect x="25" y="20" width="8.39111" height="45.3689" fill="#0898E7"/>
</g>
<g id="letter E">
<g id="meddile" filter="url(#filter1_d)">
<rect x="35.9511" y="46.2475" width="7.00724" height="21.0489" transform="rotate(-90 35.9511 46.2475)" fill="#EA3A60"/>
</g>
<g id="up" filter="url(#filter2_d)">
<rect x="35.9511" y="27.0072" width="7.00724" height="21.0489" transform="rotate(-90 35.9511 27.0072)" fill="#EA3A60"/>
</g>
<g id="down" filter="url(#filter3_d)">
<path d="M25 65.3689L33.3911 58.3617L57 58.3617V65.3689H25Z" fill="#EA3A60"/>
</g>
</g>
</g>
<g id="Learn &#38; Earn" filter="url(#filter4_d)">
<path d="M72.916 48.0273H79.3711V50H70.4453V35.7812H72.916V48.0273ZM88.8895 50.1953C87.3855 50.1953 86.1648 49.7233 85.2273 48.7793C84.2964 47.8288 83.8309 46.5658 83.8309 44.9902V44.6973C83.8309 43.6426 84.0327 42.7018 84.4363 41.875C84.8465 41.0417 85.4194 40.3939 86.1551 39.9316C86.8908 39.4694 87.7111 39.2383 88.616 39.2383C90.0548 39.2383 91.1648 39.6973 91.9461 40.6152C92.7339 41.5332 93.1277 42.832 93.1277 44.5117V45.4688H86.2234C86.2951 46.3411 86.5848 47.0312 87.0926 47.5391C87.6069 48.0469 88.2514 48.3008 89.0262 48.3008C90.1134 48.3008 90.9988 47.8613 91.6824 46.9824L92.9617 48.2031C92.5385 48.8346 91.9721 49.3262 91.2625 49.6777C90.5594 50.0228 89.7684 50.1953 88.8895 50.1953ZM88.6062 41.1426C87.9552 41.1426 87.4279 41.3704 87.0242 41.8262C86.6271 42.2819 86.3732 42.9167 86.2625 43.7305H90.784V43.5547C90.7319 42.7604 90.5203 42.1615 90.1492 41.7578C89.7781 41.3477 89.2638 41.1426 88.6062 41.1426ZM104.492 50C104.388 49.7982 104.296 49.4694 104.218 49.0137C103.463 49.8014 102.539 50.1953 101.445 50.1953C100.384 50.1953 99.5178 49.8926 98.8473 49.2871C98.1767 48.6816 97.8414 47.9329 97.8414 47.041C97.8414 45.9147 98.2581 45.0521 99.0914 44.4531C99.9312 43.8477 101.129 43.5449 102.685 43.5449H104.14V42.8516C104.14 42.3047 103.987 41.8685 103.681 41.543C103.375 41.2109 102.91 41.0449 102.285 41.0449C101.744 41.0449 101.302 41.1816 100.957 41.4551C100.612 41.722 100.439 42.0638 100.439 42.4805H98.066C98.066 41.901 98.2581 41.3607 98.6422 40.8594C99.0263 40.3516 99.5471 39.9544 100.205 39.668C100.869 39.3815 101.608 39.2383 102.421 39.2383C103.658 39.2383 104.645 39.5508 105.38 40.1758C106.116 40.7943 106.494 41.6667 106.513 42.793V47.5586C106.513 48.5091 106.647 49.2676 106.914 49.834V50H104.492ZM101.884 48.291C102.353 48.291 102.793 48.1771 103.203 47.9492C103.619 47.7214 103.932 47.4154 104.14 47.0312V45.0391H102.861C101.982 45.0391 101.321 45.1921 100.879 45.498C100.436 45.804 100.214 46.237 100.214 46.7969C100.214 47.2526 100.364 47.6172 100.664 47.8906C100.97 48.1576 101.377 48.291 101.884 48.291ZM117.731 41.6016C117.418 41.5495 117.096 41.5234 116.764 41.5234C115.677 41.5234 114.944 41.9401 114.567 42.7734V50H112.194V39.4336H114.459L114.518 40.6152C115.091 39.6973 115.885 39.2383 116.901 39.2383C117.239 39.2383 117.519 39.2839 117.741 39.375L117.731 41.6016ZM124.632 39.4336L124.7 40.6543C125.482 39.7103 126.507 39.2383 127.777 39.2383C129.977 39.2383 131.097 40.498 131.136 43.0176V50H128.763V43.1543C128.763 42.4837 128.616 41.9889 128.323 41.6699C128.037 41.3444 127.565 41.1816 126.907 41.1816C125.95 41.1816 125.237 41.6146 124.769 42.4805V50H122.396V39.4336H124.632ZM177.657 43.6523H171.817V48.0273H178.643V50H169.346V35.7812H178.575V37.7734H171.817V41.6992H177.657V43.6523ZM189.939 50C189.835 49.7982 189.743 49.4694 189.665 49.0137C188.91 49.8014 187.986 50.1953 186.892 50.1953C185.831 50.1953 184.965 49.8926 184.294 49.2871C183.624 48.6816 183.288 47.9329 183.288 47.041C183.288 45.9147 183.705 45.0521 184.538 44.4531C185.378 43.8477 186.576 43.5449 188.132 43.5449H189.587V42.8516C189.587 42.3047 189.434 41.8685 189.128 41.543C188.822 41.2109 188.357 41.0449 187.732 41.0449C187.191 41.0449 186.749 41.1816 186.404 41.4551C186.058 41.722 185.886 42.0638 185.886 42.4805H183.513C183.513 41.901 183.705 41.3607 184.089 40.8594C184.473 40.3516 184.994 39.9544 185.652 39.668C186.316 39.3815 187.055 39.2383 187.868 39.2383C189.105 39.2383 190.092 39.5508 190.827 40.1758C191.563 40.7943 191.941 41.6667 191.96 42.793V47.5586C191.96 48.5091 192.094 49.2676 192.361 49.834V50H189.939ZM187.331 48.291C187.8 48.291 188.239 48.1771 188.65 47.9492C189.066 47.7214 189.379 47.4154 189.587 47.0312V45.0391H188.308C187.429 45.0391 186.768 45.1921 186.325 45.498C185.883 45.804 185.661 46.237 185.661 46.7969C185.661 47.2526 185.811 47.6172 186.111 47.8906C186.417 48.1576 186.823 48.291 187.331 48.291ZM203.178 41.6016C202.865 41.5495 202.543 41.5234 202.211 41.5234C201.124 41.5234 200.391 41.9401 200.014 42.7734V50H197.641V39.4336H199.906L199.965 40.6152C200.538 39.6973 201.332 39.2383 202.348 39.2383C202.686 39.2383 202.966 39.2839 203.188 39.375L203.178 41.6016ZM210.079 39.4336L210.147 40.6543C210.929 39.7103 211.954 39.2383 213.223 39.2383C215.424 39.2383 216.544 40.498 216.583 43.0176V50H214.21V43.1543C214.21 42.4837 214.063 41.9889 213.77 41.6699C213.484 41.3444 213.012 41.1816 212.354 41.1816C211.397 41.1816 210.684 41.6146 210.216 42.4805V50H207.843V39.4336H210.079Z" fill="#0898E7"/>
<path d="M144.567 46.1621C144.567 45.5046 144.746 44.9023 145.104 44.3555C145.462 43.8021 146.169 43.1478 147.223 42.3926C146.67 41.696 146.283 41.1035 146.061 40.6152C145.846 40.127 145.739 39.6549 145.739 39.1992C145.739 38.0859 146.078 37.207 146.755 36.5625C147.432 35.9115 148.343 35.5859 149.489 35.5859C150.524 35.5859 151.371 35.8919 152.028 36.5039C152.692 37.1094 153.024 37.8613 153.024 38.7598C153.024 39.3522 152.874 39.8991 152.575 40.4004C152.276 40.8952 151.784 41.39 151.1 41.8848L150.134 42.5879L152.878 45.8301C153.275 45.0488 153.473 44.1797 153.473 43.2227H155.534C155.534 44.974 155.124 46.4095 154.304 47.5293L156.393 50H153.639L152.839 49.0527C151.823 49.8145 150.612 50.1953 149.206 50.1953C147.8 50.1953 146.673 49.8242 145.827 49.082C144.987 48.3333 144.567 47.36 144.567 46.1621ZM149.274 48.3008C150.075 48.3008 150.824 48.0339 151.52 47.5L148.415 43.8379L148.112 44.0527C147.331 44.6452 146.94 45.3223 146.94 46.084C146.94 46.7415 147.152 47.2754 147.575 47.6855C147.998 48.0957 148.565 48.3008 149.274 48.3008ZM147.966 39.1406C147.966 39.6875 148.301 40.3743 148.971 41.2012L150.055 40.459L150.358 40.2148C150.762 39.8568 150.964 39.3978 150.964 38.8379C150.964 38.4668 150.824 38.151 150.544 37.8906C150.264 37.6237 149.909 37.4902 149.479 37.4902C149.017 37.4902 148.649 37.6465 148.376 37.959C148.102 38.2715 147.966 38.6654 147.966 39.1406Z" fill="#EA3A60"/>
</g>
</g>
<defs>
<filter id="filter0_d" x="0" y="0" width="38.3911" height="75.3689" filterUnits="userSpaceOnUse" color-interpolation-filters="sRGB">
<feFlood flood-opacity="0" result="BackgroundImageFix"/>
<feColorMatrix in="SourceAlpha" type="matrix" values="0 0 0 0 0 0 0 0 0 0 0 0 0 0 0 0 0 0 127 0"/>
<feOffset dx="-10" dy="-5"/>
<feGaussianBlur stdDeviation="7.5"/>
<feColorMatrix type="matrix" values="0 0 0 0 0 0 0 0 0 0 0 0 0 0 0 0 0 0 0.25 0"/>
<feBlend mode="normal" in2="BackgroundImageFix" result="effect1_dropShadow"/>
<feBlend mode="normal" in="SourceGraphic" in2="effect1_dropShadow" result="shape"/>
</filter>
<filter id="filter1_d" x="27.9511" y="28.2402" width="51.0489" height="37.0072" filterUnits="userSpaceOnUse" color-interpolation-filters="sRGB">
<feFlood flood-opacity="0" result="BackgroundImageFix"/>
<feColorMatrix in="SourceAlpha" type="matrix" values="0 0 0 0 0 0 0 0 0 0 0 0 0 0 0 0 0 0 127 0"/>
<feOffset dx="7" dy="4"/>
<feGaussianBlur stdDeviation="7.5"/>
<feColorMatrix type="matrix" values="0 0 0 0 0 0 0 0 0 0 0 0 0 0 0 0 0 0 0.25 0"/>
<feBlend mode="normal" in2="BackgroundImageFix" result="effect1_dropShadow"/>
<feBlend mode="normal" in="SourceGraphic" in2="effect1_dropShadow" result="shape"/>
</filter>
<filter id="filter2_d" x="27.9511" y="9.00001" width="51.0489" height="37.0072" filterUnits="userSpaceOnUse" color-interpolation-filters="sRGB">
<feFlood flood-opacity="0" result="BackgroundImageFix"/>
<feColorMatrix in="SourceAlpha" type="matrix" values="0 0 0 0 0 0 0 0 0 0 0 0 0 0 0 0 0 0 127 0"/>
<feOffset dx="7" dy="4"/>
<feGaussianBlur stdDeviation="7.5"/>
<feColorMatrix type="matrix" values="0 0 0 0 0 0 0 0 0 0 0 0 0 0 0 0 0 0 0.25 0"/>
<feBlend mode="normal" in2="BackgroundImageFix" result="effect1_dropShadow"/>
<feBlend mode="normal" in="SourceGraphic" in2="effect1_dropShadow" result="shape"/>
</filter>
<filter id="filter3_d" x="5" y="36.3617" width="62" height="37.0072" filterUnits="userSpaceOnUse" color-interpolation-filters="sRGB">
<feFlood flood-opacity="0" result="BackgroundImageFix"/>
<feColorMatrix in="SourceAlpha" type="matrix" values="0 0 0 0 0 0 0 0 0 0 0 0 0 0 0 0 0 0 127 0"/>
<feOffset dx="-5" dy="-7"/>
<feGaussianBlur stdDeviation="7.5"/>
<feColorMatrix type="matrix" values="0 0 0 0 0 0 0 0 0 0 0 0 0 0 0 0 0 0 0.25 0"/>
<feBlend mode="normal" in2="BackgroundImageFix" result="effect1_dropShadow"/>
<feBlend mode="normal" in="SourceGraphic" in2="effect1_dropShadow" result="shape"/>
</filter>
<filter id="filter4_d" x="66.4453" y="35.5859" width="154.137" height="22.6094" filterUnits="userSpaceOnUse" color-interpolation-filters="sRGB">
<feFlood flood-opacity="0" result="BackgroundImageFix"/>
<feColorMatrix in="SourceAlpha" type="matrix" values="0 0 0 0 0 0 0 0 0 0 0 0 0 0 0 0 0 0 127 0"/>
<feOffset dy="4"/>
<feGaussianBlur stdDeviation="2"/>
<feColorMatrix type="matrix" values="0 0 0 0 0 0 0 0 0 0 0 0 0 0 0 0 0 0 0.25 0"/>
<feBlend mode="normal" in2="BackgroundImageFix" result="effect1_dropShadow"/>
<feBlend mode="normal" in="SourceGraphic" in2="effect1_dropShadow" result="shape"/>
</filter>
</defs>
</svg>
